<svg width="60" height="60" viewBox="0 0 60 60" fill="none" xmlns="http://www.w3.org/2000/svg">
<g id="attachment" clip-path="url(#clip0_469_1843)">
<path id="Vector" d="M47.0309 25.9264L29.4274 45.6677C25.95 49.5675 20.0004 50.4924 15.7865 47.4048C10.963 43.874 10.3239 37.0404 14.2173 32.6742L34.7824 9.61154C36.9621 7.1672 40.696 6.51079 43.338 8.43122C46.3864 10.6471 46.7908 14.9267 44.3449 17.6695L26.8745 37.2616C25.9594 38.2878 24.371 38.3788 23.3448 37.4637C22.3185 36.5485 22.2276 34.9602 23.1427 33.9339L37.7014 17.6072C38.3835 16.8422 38.3148 15.6421 37.5498 14.9599C36.7848 14.2777 35.5847 14.3464 34.9025 15.1114L20.5768 31.1769C18.3972 33.6212 18.1711 37.4057 20.3805 39.8113C22.9298 42.5869 27.2275 42.5002 29.6734 39.7574L46.8609 20.4825C50.3384 16.5828 50.5783 10.5665 47.03 6.73251C42.9531 2.32676 36.1099 2.48832 32.2165 6.85455L11.8011 29.7493C7.02588 35.1044 6.6682 43.3939 11.5555 48.6563C17.1952 54.6901 26.5858 54.4889 31.9434 48.4807L49.8298 28.4222C50.512 27.6572 50.4433 26.4571 49.6782 25.7749C48.9132 25.0927 47.7131 25.1614 47.0309 25.9264Z" fill="#08254F"/>
</g>
<defs>
<clipPath id="clip0_469_1843">
<rect width="60" height="60" fill="white" transform="translate(-12.3569 32.4248) rotate(-48.2764)"/>
</clipPath>
</defs>
</svg>
