<svg width="36" height="36" viewBox="0 0 36 36" fill="none" xmlns="http://www.w3.org/2000/svg">
<g id="autorenew">
<path id="Vector" d="M18 9.00003V11.685C18 12.36 18.81 12.69 19.275 12.21L23.46 8.02503C23.76 7.72503 23.76 7.26003 23.46 6.96003L19.275 2.77503C18.81 2.31003 18 2.64003 18 3.31503V6.00003C11.37 6.00003 6 11.37 6 18C6 19.56 6.3 21.06 6.855 22.425C7.26 23.43 8.55 23.7 9.315 22.935C9.72 22.53 9.885 21.915 9.66 21.375C9.225 20.34 9 19.185 9 18C9 13.035 13.035 9.00003 18 9.00003ZM26.685 13.065C26.28 13.47 26.115 14.1 26.34 14.625C26.76 15.675 27 16.815 27 18C27 22.965 22.965 27 18 27V24.315C18 23.64 17.19 23.31 16.725 23.79L12.54 27.975C12.24 28.275 12.24 28.74 12.54 29.04L16.725 33.225C17.19 33.69 18 33.36 18 32.7V30C24.63 30 30 24.63 30 18C30 16.44 29.7 14.94 29.145 13.575C28.74 12.57 27.45 12.3 26.685 13.065Z" fill="#08254F"/>
</g>
</svg>
