<svg width="36" height="36" viewBox="0 0 36 36" fill="none" xmlns="http://www.w3.org/2000/svg">
<g id="call">
<path id="Vector" d="M28.8451 22.89L25.0351 22.455C24.1201 22.35 23.2201 22.665 22.5751 23.31L19.8151 26.07C15.5701 23.91 12.0901 20.445 9.93006 16.185L12.7051 13.41C13.3501 12.765 13.6651 11.865 13.5601 10.95L13.1251 7.17001C12.9451 5.65501 11.6701 4.51501 10.1401 4.51501H7.54506C5.85006 4.51501 4.44006 5.92501 4.54506 7.62001C5.34006 20.43 15.5851 30.66 28.3801 31.455C30.0751 31.56 31.4851 30.15 31.4851 28.455V25.86C31.5001 24.345 30.3601 23.07 28.8451 22.89Z" fill="#08254F"/>
</g>
</svg>
