<svg width="48" height="48" viewBox="0 0 48 48" fill="none" xmlns="http://www.w3.org/2000/svg">
<g id="call">
<path id="Vector" d="M38.4601 30.52L33.3801 29.94C32.1601 29.8 30.9601 30.22 30.1001 31.08L26.4201 34.76C20.7601 31.88 16.1201 27.26 13.2401 21.58L16.9401 17.88C17.8001 17.02 18.2201 15.82 18.0801 14.6L17.5001 9.56002C17.2601 7.54002 15.5601 6.02002 13.5201 6.02002H10.0601C7.80008 6.02002 5.92008 7.90002 6.06008 10.16C7.12008 27.24 20.7801 40.88 37.8401 41.94C40.1001 42.08 41.9801 40.2 41.9801 37.94V34.48C42.0001 32.46 40.4801 30.76 38.4601 30.52Z" fill="white"/>
</g>
</svg>
