<svg width="36" height="36" viewBox="0 0 36 36" fill="none" xmlns="http://www.w3.org/2000/svg">
<g id="exit-to-app">
<path id="Vector" d="M16.185 24.435C16.77 25.02 17.715 25.02 18.3 24.435L23.685 19.05C24.27 18.465 24.27 17.52 23.685 16.935L18.3 11.55C17.715 10.965 16.77 10.965 16.185 11.55C15.6 12.135 15.6 13.08 16.185 13.665L19.005 16.5H6C5.175 16.5 4.5 17.175 4.5 18C4.5 18.825 5.175 19.5 6 19.5H19.005L16.185 22.32C15.6 22.905 15.615 23.865 16.185 24.435ZM28.5 4.5H7.5C5.835 4.5 4.5 5.85 4.5 7.5V12C4.5 12.825 5.175 13.5 6 13.5C6.825 13.5 7.5 12.825 7.5 12V9C7.5 8.175 8.175 7.5 9 7.5H27C27.825 7.5 28.5 8.175 28.5 9V27C28.5 27.825 27.825 28.5 27 28.5H9C8.175 28.5 7.5 27.825 7.5 27V24C7.5 23.175 6.825 22.5 6 22.5C5.175 22.5 4.5 23.175 4.5 24V28.5C4.5 30.15 5.85 31.5 7.5 31.5H28.5C30.15 31.5 31.5 30.15 31.5 28.5V7.5C31.5 5.85 30.15 4.5 28.5 4.5Z" fill="#BA5B50"/>
</g>
</svg>
