<svg width="36" height="36" viewBox="0 0 36 36" fill="none" xmlns="http://www.w3.org/2000/svg">
<g id="file-copy">
<path id="Vector" d="M22.5 1.5H6C4.35 1.5 3 2.85 3 4.5V24C3 24.825 3.675 25.5 4.5 25.5C5.325 25.5 6 24.825 6 24V6C6 5.175 6.675 4.5 7.5 4.5H22.5C23.325 4.5 24 3.825 24 3C24 2.175 23.325 1.5 22.5 1.5ZM23.385 8.385L30.63 15.63C31.185 16.185 31.5 16.95 31.5 17.745V31.5C31.5 33.15 30.15 34.5 28.5 34.5H11.985C10.335 34.5 9 33.15 9 31.5L9.015 10.5C9.015 8.85 10.35 7.5 12 7.5H21.255C22.05 7.5 22.815 7.815 23.385 8.385ZM22.5 18H29.25L21 9.75V16.5C21 17.325 21.675 18 22.5 18Z" fill="#08254F"/>
</g>
</svg>
