<svg width="48" height="48" viewBox="0 0 48 48" fill="none" xmlns="http://www.w3.org/2000/svg">
<g id="headset-mic">
<path id="Vector" d="M22.8 2.03998C13.24 2.65998 6 11.04 6 20.62V34C6 37.32 8.68 40 12 40H14C16.2 40 18 38.2 18 36V28C18 25.8 16.2 24 14 24H10V20.58C10 12.9 15.92 6.21998 23.58 5.99998C31.52 5.77998 38 12.12 38 20V24H34C31.8 24 30 25.8 30 28V36C30 38.2 31.8 40 34 40H38V42H26C24.9 42 24 42.9 24 44C24 45.1 24.9 46 26 46H36C39.32 46 42 43.32 42 40V20C42 9.65998 33.28 1.35998 22.8 2.03998Z" fill="#08254F"/>
</g>
</svg>
