<svg width="48" height="48" viewBox="0 0 48 48" fill="none" xmlns="http://www.w3.org/2000/svg">
<g id="help-outline">
<path id="Vector" d="M24 4C12.96 4 4 12.96 4 24C4 35.04 12.96 44 24 44C35.04 44 44 35.04 44 24C44 12.96 35.04 4 24 4ZM24 40C15.18 40 8 32.82 8 24C8 15.18 15.18 8 24 8C32.82 8 40 15.18 40 24C40 32.82 32.82 40 24 40ZM22 32H26V36H22V32ZM25.22 12.08C21.1 11.48 17.46 14.02 16.36 17.66C16 18.82 16.88 20 18.1 20H18.5C19.32 20 19.98 19.42 20.26 18.66C20.9 16.88 22.8 15.66 24.86 16.1C26.76 16.5 28.16 18.36 28 20.3C27.8 22.98 24.76 23.56 23.1 26.06C23.1 26.08 23.08 26.08 23.08 26.1C23.06 26.14 23.04 26.16 23.02 26.2C22.84 26.5 22.66 26.84 22.52 27.2C22.5 27.26 22.46 27.3 22.44 27.36C22.42 27.4 22.42 27.44 22.4 27.5C22.16 28.18 22 29 22 30H26C26 29.16 26.22 28.46 26.56 27.86C26.6 27.8 26.62 27.74 26.66 27.68C26.82 27.4 27.02 27.14 27.22 26.9C27.24 26.88 27.26 26.84 27.28 26.82C27.48 26.58 27.7 26.36 27.94 26.14C29.86 24.32 32.46 22.84 31.92 19.02C31.44 15.54 28.7 12.6 25.22 12.08Z" fill="#08254F"/>
</g>
</svg>
