<svg id="eqcvJ3ot7T61" xmlns="http://www.w3.org/2000/svg" xmlns:xlink="http://www.w3.org/1999/xlink" viewBox="0 0 600 600" shape-rendering="geometricPrecision" text-rendering="geometricPrecision" project-id="439ccdbb69d14a02ae22ff3f85491692" export-id="2289e69d5fb74886b8b942e27b0ac821" cached="false"><rect width="46" height="46" rx="0" ry="0" transform="matrix(8.703173 0 0 4.566901 99.827021 194.961277)" fill="#5483cc"/><g transform="translate(.000001 0.000001)"><rect width="46" height="46" rx="0" ry="0" transform="matrix(2.399717 0 0 8.465229 467.979488 98.001731)" fill="#5483cc"/></g><path d="M81.5,55C63.18,62.28,57.28,68.18,50,86.5C42.72,68.18,36.82,62.28,18.5,55C36.82,47.72,42.72,41.82,50,23.5C57.28,41.82,63.18,47.72,81.5,55Z" transform="matrix(1.559567 0 0 1.456302 390.001139 114.864667)" fill="#5483cc"/><path d="M81.5,55C63.18,62.28,57.28,68.18,50,86.5C42.72,68.18,36.82,62.28,18.5,55C36.82,47.72,42.72,41.82,50,23.5C57.28,41.82,63.18,47.72,81.5,55Z" transform="matrix(1.559567 0 0 1.671438 390.00114 313.109633)" fill="#5483cc"/></svg>
