<svg width="36" height="36" viewBox="0 0 36 36" fill="none" xmlns="http://www.w3.org/2000/svg">
<g id="notification-important">
<path id="Vector" d="M15.015 31.515C15.015 33.165 16.35 34.5 18 34.5C19.65 34.5 20.985 33.165 20.985 31.515H15.015ZM18 9C22.14 9 25.5 12.36 25.5 16.5V27H10.5V16.5C10.5 12.36 13.86 9 18 9ZM18 2.25C16.755 2.25 15.75 3.255 15.75 4.5V6.255C11.04 7.275 7.5 11.475 7.5 16.5V25.5L4.5 28.5V30H31.5V28.5L28.5 25.5V16.5C28.5 11.475 24.96 7.275 20.25 6.255V4.5C20.25 3.255 19.245 2.25 18 2.25ZM16.5 12H19.5V18H16.5V12ZM16.5 21H19.5V24H16.5V21Z" fill="#08254F"/>
<circle id="Ellipse 25" cx="24" cy="9" r="6" fill="#CD1000"/>
</g>
</svg>
