<svg width="48" height="48" viewBox="0 0 48 48" fill="none" xmlns="http://www.w3.org/2000/svg">
<g id="perm-identity">
<path id="Vector" d="M24 24C28.42 24 32 20.42 32 16C32 11.58 28.42 8 24 8C19.58 8 16 11.58 16 16C16 20.42 19.58 24 24 24ZM24 12C26.2 12 28 13.8 28 16C28 18.2 26.2 20 24 20C21.8 20 20 18.2 20 16C20 13.8 21.8 12 24 12ZM24 26C18.66 26 8 28.68 8 34V38C8 39.1 8.9 40 10 40H38C39.1 40 40 39.1 40 38V34C40 28.68 29.34 26 24 26ZM36 36H12V34.02C12.4 32.58 18.6 30 24 30C29.4 30 35.6 32.58 36 34V36Z" fill="#08254F"/>
</g>
</svg>
