<svg width="36" height="36" viewBox="0 0 36 36" fill="none" xmlns="http://www.w3.org/2000/svg">
<g id="settings">
<path id="Vector" d="M29.1448 19.47C29.2048 18.99 29.2498 18.51 29.2498 18C29.2498 17.49 29.2048 17.01 29.1448 16.53L32.3098 14.055C32.5948 13.83 32.6698 13.425 32.4898 13.095L29.4898 7.905C29.3098 7.575 28.9048 7.455 28.5748 7.575L24.8398 9.075C24.0598 8.475 23.2198 7.98 22.3048 7.605L21.7348 3.63C21.6898 3.27 21.3748 3 20.9998 3H14.9998C14.6248 3 14.3098 3.27 14.2648 3.63L13.6948 7.605C12.7798 7.98 11.9398 8.49 11.1598 9.075L7.42476 7.575C7.07976 7.44 6.68976 7.575 6.50976 7.905L3.50976 13.095C3.31476 13.425 3.40476 13.83 3.68976 14.055L6.85476 16.53C6.79476 17.01 6.74976 17.505 6.74976 18C6.74976 18.495 6.79476 18.99 6.85476 19.47L3.68976 21.945C3.40476 22.17 3.32976 22.575 3.50976 22.905L6.50976 28.095C6.68976 28.425 7.09476 28.545 7.42476 28.425L11.1598 26.925C11.9398 27.525 12.7798 28.02 13.6948 28.395L14.2648 32.37C14.3098 32.73 14.6248 33 14.9998 33H20.9998C21.3748 33 21.6898 32.73 21.7348 32.37L22.3048 28.395C23.2198 28.02 24.0598 27.51 24.8398 26.925L28.5748 28.425C28.9198 28.56 29.3098 28.425 29.4898 28.095L32.4898 22.905C32.6698 22.575 32.5948 22.17 32.3098 21.945L29.1448 19.47ZM17.9998 23.25C15.1048 23.25 12.7498 20.895 12.7498 18C12.7498 15.105 15.1048 12.75 17.9998 12.75C20.8948 12.75 23.2498 15.105 23.2498 18C23.2498 20.895 20.8948 23.25 17.9998 23.25Z" fill="#08254F"/>
</g>
</svg>
