<svg width="48" height="48" viewBox="0 0 48 48" fill="none" xmlns="http://www.w3.org/2000/svg">
<g id="shopping-cart">
<path id="Vector" d="M14 36C11.8 36 10.02 37.8 10.02 40C10.02 42.2 11.8 44 14 44C16.2 44 18 42.2 18 40C18 37.8 16.2 36 14 36ZM2 6C2 7.1 2.9 8 4 8H6L13.2 23.18L10.5 28.06C9.04 30.74 10.96 34 14 34H36C37.1 34 38 33.1 38 32C38 30.9 37.1 30 36 30H14L16.2 26H31.1C32.6 26 33.92 25.18 34.6 23.94L41.76 10.96C42.5 9.64 41.54 8 40.02 8H10.42L9.08 5.14C8.76 4.44 8.04 4 7.28 4H4C2.9 4 2 4.9 2 6ZM34 36C31.8 36 30.02 37.8 30.02 40C30.02 42.2 31.8 44 34 44C36.2 44 38 42.2 38 40C38 37.8 36.2 36 34 36Z" fill="#08254F"/>
</g>
</svg>
