<svg width="48" height="48" viewBox="0 0 48 48" fill="none" xmlns="http://www.w3.org/2000/svg">
<g id="trending-up">
<path id="Vector" d="M33.7 13.7L36.58 16.58L26.82 26.34L20.24 19.76C19.46 18.98 18.2 18.98 17.42 19.76L5.41996 31.78C4.63996 32.56 4.63996 33.82 5.41996 34.6C6.19996 35.38 7.45996 35.38 8.23996 34.6L18.82 24L25.4 30.58C26.18 31.36 27.44 31.36 28.22 30.58L39.4 19.42L42.28 22.3C42.9 22.92 43.98 22.48 43.98 21.6V13C44 12.44 43.56 12 43 12H34.42C33.52 12 33.08 13.08 33.7 13.7Z" fill="#08254F"/>
</g>
</svg>
