<svg width="24" height="24" viewBox="0 0 24 24" fill="none" xmlns="http://www.w3.org/2000/svg">
<g id="Viber" clip-path="url(#clip0_158_895)">
<path id="Vector" d="M20.6906 2.34077C20.0942 1.79049 17.6843 0.040994 12.3162 0.0172255C12.3162 0.0172255 5.98587 -0.36451 2.89994 2.46609C1.18213 4.18426 0.577831 6.69832 0.514089 9.81522C0.450346 12.9321 0.367876 18.7734 5.99848 20.3572H6.00388L6.00028 22.7741C6.00028 22.7741 5.96426 23.7525 6.60853 23.952C7.38785 24.194 7.84521 23.4504 8.58924 22.6487C8.99762 22.2087 9.56158 21.5622 9.98653 21.0681C13.8374 21.3923 16.7991 20.6515 17.1354 20.542C17.9129 20.2899 22.3126 19.7259 23.0282 13.8854C23.7668 7.86513 22.671 4.05714 20.6906 2.34077ZM21.3432 13.4536C20.7392 18.3304 17.1707 18.6369 16.5128 18.8479C16.233 18.938 13.6317 19.5851 10.3607 19.3716C10.3607 19.3716 7.92336 22.312 7.16205 23.0766C7.04321 23.1961 6.90348 23.2444 6.8102 23.2206C6.67912 23.1886 6.6431 23.0334 6.64455 22.8065C6.64671 22.4824 6.66543 18.7903 6.66543 18.7903C6.66255 18.7903 6.66543 18.7903 6.66543 18.7903C1.90238 17.4679 2.18004 12.4964 2.23406 9.89301C2.28808 7.28965 2.77713 5.15697 4.22989 3.72258C6.8401 1.35834 12.2172 1.71163 12.2172 1.71163C16.758 1.73143 18.9339 3.09884 19.4384 3.55692C21.1138 4.99131 21.9673 8.42369 21.3432 13.4522V13.4536Z" fill="#7360F2"/>
<path id="Vector_2" d="M14.5261 9.98249C14.4483 9.98249 14.3734 9.95259 14.3171 9.89896C14.2607 9.84534 14.2271 9.77209 14.2232 9.69438C14.1717 8.66406 13.6862 8.15952 12.6955 8.10622C12.6166 8.09994 12.5432 8.06307 12.4911 8.00347C12.439 7.94388 12.4122 7.86627 12.4165 7.7872C12.4207 7.70813 12.4557 7.63386 12.514 7.58023C12.5722 7.5266 12.6492 7.49786 12.7283 7.50012C14.0356 7.57215 14.7623 8.31869 14.8293 9.66413C14.8313 9.70395 14.8254 9.74378 14.812 9.78133C14.7986 9.81888 14.7779 9.85342 14.7512 9.88298C14.7244 9.91254 14.6921 9.93655 14.6561 9.95362C14.6201 9.97069 14.581 9.9805 14.5412 9.98249H14.5261Z" fill="#7360F2"/>
<path id="Vector_3" d="M16.0843 10.5048H16.0771C15.9967 10.5029 15.9202 10.4691 15.8647 10.4109C15.8091 10.3527 15.7789 10.2748 15.7807 10.1944C15.8041 9.15684 15.5078 8.31666 14.8747 7.62593C14.2415 6.93521 13.379 6.56067 12.2292 6.4764C12.1487 6.47053 12.0739 6.43295 12.0212 6.37193C11.9685 6.31091 11.9422 6.23145 11.9481 6.15103C11.9539 6.07061 11.9915 5.99581 12.0525 5.9431C12.1136 5.89039 12.193 5.86408 12.2734 5.86995C13.5674 5.96466 14.593 6.41734 15.3223 7.21503C16.0516 8.01271 16.4142 9.02179 16.3875 10.207C16.3859 10.2864 16.3533 10.362 16.2966 10.4177C16.24 10.4734 16.1638 10.5046 16.0843 10.5048Z" fill="#7360F2"/>
<path id="Vector_4" d="M17.6784 11.128C17.5983 11.1279 17.5215 11.0962 17.4646 11.0397C17.4078 10.9833 17.3755 10.9067 17.3749 10.8266C17.3608 8.97082 16.8264 7.55336 15.741 6.49386C14.6685 5.44949 13.3137 4.91362 11.7136 4.9021C11.6738 4.90196 11.6343 4.89396 11.5975 4.87858C11.5608 4.86319 11.5274 4.84071 11.4993 4.81242C11.4426 4.75528 11.4108 4.67795 11.4111 4.59743C11.4114 4.51691 11.4437 4.43981 11.5008 4.38308C11.558 4.32635 11.6353 4.29464 11.7158 4.29492H11.7183C13.4801 4.30789 14.976 4.90138 16.1648 6.05955C17.3536 7.21772 17.9665 8.82317 17.9824 10.823C17.983 10.9034 17.9516 10.9808 17.8951 11.0381C17.8387 11.0955 17.7618 11.128 17.6813 11.1287L17.6784 11.128Z" fill="#7360F2"/>
<path id="Vector_5" d="M12.7718 13.7454C12.7718 13.7454 13.1986 13.7814 13.4283 13.4983L13.8763 12.9347C14.0924 12.6553 14.6139 12.477 15.1245 12.7615C15.5072 12.9798 15.8787 13.217 16.2377 13.4724C16.5766 13.7216 17.2705 14.3007 17.2727 14.3007C17.6033 14.5798 17.6796 14.9896 17.4546 15.4218C17.4546 15.4243 17.4528 15.4286 17.4528 15.4308C17.2049 15.8605 16.8901 16.2481 16.5204 16.5789C16.5161 16.581 16.5161 16.5832 16.5121 16.5854C16.1909 16.8538 15.8753 17.0064 15.5653 17.0431C15.5197 17.0511 15.4733 17.054 15.427 17.0517C15.2904 17.053 15.1544 17.0321 15.0244 16.9898L15.0143 16.975C14.5368 16.8403 13.7395 16.5033 12.4117 15.7708C11.6433 15.3519 10.9118 14.8686 10.225 14.3263C9.88074 14.0546 9.55237 13.7634 9.24149 13.4541L9.20835 13.4209L9.17522 13.3878L9.14209 13.3547C9.13093 13.3439 9.12012 13.3327 9.10896 13.3215C8.79964 13.0106 8.50842 12.6823 8.23673 12.338C7.69445 11.6513 7.21123 10.9199 6.79226 10.1517C6.05976 8.82353 5.72268 8.02693 5.58799 7.54868L5.57322 7.53859C5.531 7.40861 5.51021 7.27263 5.51164 7.13597C5.50912 7.08971 5.5119 7.04331 5.51993 6.99768C5.55858 6.68821 5.71139 6.37238 5.97837 6.05018C5.98053 6.04622 5.98269 6.04622 5.98485 6.0419C6.31556 5.67216 6.70312 5.35754 7.13294 5.10989C7.1351 5.10989 7.13942 5.10773 7.14194 5.10773C7.57409 4.88265 7.98392 4.959 8.26266 5.28779C8.26482 5.28995 8.84282 5.98392 9.09095 6.3228C9.34637 6.68211 9.58363 7.05399 9.80185 7.43704C10.0863 7.94734 9.90808 8.46988 9.62862 8.68524L9.06502 9.13324C8.78052 9.363 8.81798 9.78975 8.81798 9.78975C8.81798 9.78975 9.65275 12.9492 12.7718 13.7454Z" fill="#7360F2"/>
</g>
<defs>
<clipPath id="clip0_158_895">
<rect width="24" height="24" fill="white"/>
</clipPath>
</defs>
</svg>
