<svg width="137" height="20" viewBox="0 0 137 20" fill="none" xmlns="http://www.w3.org/2000/svg">
<path d="M0.833313 6.90537C0.833313 6.14663 0.976413 5.43478 1.26261 4.76982C1.54881 4.10486 1.93603 3.52515 2.42425 3.03069C2.92089 2.52771 3.4975 2.13129 4.15408 1.84143C4.81066 1.55158 5.51353 1.40665 6.26271 1.40665H14.5709V5.07673H6.26271C6.01018 5.07673 5.77448 5.12361 5.55562 5.21739C5.33676 5.31117 5.14316 5.44331 4.9748 5.61381C4.81487 5.77579 4.6886 5.9676 4.59601 6.18926C4.50341 6.41091 4.45712 6.64962 4.45712 6.90537C4.45712 7.16113 4.50341 7.40409 4.59601 7.63427C4.6886 7.85592 4.81487 8.052 4.9748 8.22251C5.14316 8.38448 5.33676 8.51236 5.55562 8.60614C5.77448 8.69991 6.01018 8.7468 6.26271 8.7468H9.88651C10.6357 8.7468 11.3386 8.89173 11.9951 9.18159C12.6601 9.46292 13.2367 9.85507 13.725 10.3581C14.2216 10.8525 14.6088 11.4365 14.8866 12.11C15.1728 12.7749 15.3159 13.4868 15.3159 14.2455C15.3159 15.0043 15.1728 15.7161 14.8866 16.3811C14.6088 17.046 14.2216 17.63 13.725 18.133C13.2367 18.6275 12.6601 19.0196 11.9951 19.3095C11.3386 19.5993 10.6357 19.7442 9.88651 19.7442H1.84343V16.0742H9.88651C10.139 16.0742 10.3747 16.0273 10.5936 15.9335C10.8125 15.8397 11.0019 15.7118 11.1618 15.5499C11.3301 15.3794 11.4606 15.1833 11.5532 14.9616C11.6458 14.74 11.6921 14.5013 11.6921 14.2455C11.6921 13.9898 11.6458 13.7511 11.5532 13.5294C11.4606 13.3078 11.3301 13.1159 11.1618 12.954C11.0019 12.7835 10.8125 12.6513 10.5936 12.5575C10.3747 12.4638 10.139 12.4169 9.88651 12.4169H6.26271C5.51353 12.4169 4.81066 12.272 4.15408 11.9821C3.4975 11.6922 2.92089 11.3001 2.42425 10.8056C1.93603 10.3026 1.54881 9.71867 1.26261 9.05371C0.976413 8.38022 0.833313 7.66411 0.833313 6.90537Z" fill="white"/>
<path d="M23.8893 19.7442C23.0559 19.7442 22.2731 19.5865 21.5408 19.2711C20.8084 18.9471 20.1645 18.5081 19.6089 17.954C19.0618 17.3913 18.6283 16.7391 18.3084 15.9974C17.9969 15.2558 17.8412 14.4629 17.8412 13.6189V9.55243H16.1619V6.07417H17.8412V0.601023H21.2756V6.07417H26.503V9.55243H21.2756V13.6189C21.2756 13.9855 21.343 14.3308 21.4776 14.6547C21.6123 14.9702 21.7975 15.2472 22.0332 15.4859C22.2689 15.7246 22.5467 15.9165 22.8666 16.0614C23.1864 16.1978 23.5273 16.266 23.8893 16.266H26.503V19.7442H23.8893Z" fill="white"/>
<path d="M31.8945 19.7442H28.4475V6.04859H29.2808L30.4172 7.67263C30.9728 7.16113 31.6041 6.76897 32.3112 6.49616C33.0183 6.21483 33.7506 6.07417 34.5082 6.07417H37.5512V9.55243H34.5082C34.1462 9.55243 33.8053 9.62063 33.4854 9.75703C33.1656 9.89344 32.8878 10.081 32.6521 10.3197C32.4164 10.5584 32.2312 10.8397 32.0965 11.1637C31.9618 11.4876 31.8945 11.8329 31.8945 12.1995V19.7442Z" fill="white"/>
<path d="M44.2811 16.3939C44.4158 16.4365 44.5505 16.4663 44.6851 16.4834C44.8198 16.4919 44.9545 16.4962 45.0892 16.4962C45.4259 16.4962 45.75 16.4493 46.0614 16.3555C46.3729 16.2617 46.6633 16.1296 46.9327 15.9591C47.2104 15.7801 47.4546 15.5669 47.665 15.3197C47.8839 15.0639 48.0606 14.7826 48.1953 14.4757L50.7206 17.046C50.4007 17.5064 50.0304 17.9199 49.6095 18.2864C49.197 18.653 48.7467 18.9642 48.2584 19.2199C47.7786 19.4757 47.2694 19.6675 46.7306 19.7954C46.2003 19.9318 45.6532 20 45.0892 20C44.138 20 43.2415 19.821 42.3997 19.4629C41.5664 19.1049 40.8341 18.6061 40.2027 17.9668C39.5798 17.3274 39.0874 16.5686 38.7254 15.6905C38.3635 14.8039 38.1825 13.8321 38.1825 12.7749C38.1825 11.6922 38.3635 10.7033 38.7254 9.80818C39.0874 8.91304 39.5798 8.15004 40.2027 7.51918C40.8341 6.88832 41.5664 6.39812 42.3997 6.04859C43.2415 5.69906 44.138 5.5243 45.0892 5.5243C45.6532 5.5243 46.2045 5.5925 46.7433 5.7289C47.282 5.8653 47.7913 6.06138 48.2711 6.31714C48.7593 6.57289 49.2138 6.88832 49.6347 7.26343C50.0556 7.63001 50.426 8.04348 50.7459 8.50384L44.2811 16.3939ZM46.0488 9.19437C45.8889 9.1347 45.7289 9.09633 45.569 9.07928C45.4175 9.06223 45.2575 9.05371 45.0892 9.05371C44.6178 9.05371 44.1717 9.14322 43.7508 9.32225C43.3383 9.49275 42.9764 9.73998 42.6649 10.0639C42.3619 10.3879 42.122 10.7801 41.9452 11.2404C41.7684 11.6922 41.68 12.2038 41.68 12.7749C41.68 12.9028 41.6842 13.0477 41.6927 13.2097C41.7095 13.3717 41.7305 13.5379 41.7558 13.7084C41.7895 13.8704 41.8273 14.0281 41.8694 14.1816C41.9115 14.335 41.9662 14.4714 42.0336 14.5908L46.0488 9.19437Z" fill="white"/>
<path d="M65.481 19.7442H64.6476L63.3092 17.8645C62.9809 18.1628 62.6316 18.4442 62.2612 18.7084C61.8993 18.9642 61.5163 19.1901 61.1122 19.3862C60.7082 19.5737 60.2915 19.7229 59.8622 19.8338C59.4413 19.9446 59.012 20 58.5743 20C57.6231 20 56.7266 19.838 55.8848 19.5141C55.0515 19.1901 54.3192 18.7212 53.6878 18.1074C53.0649 17.4851 52.5725 16.7263 52.2105 15.8312C51.8486 14.9361 51.6676 13.9173 51.6676 12.7749C51.6676 11.7093 51.8486 10.7332 52.2105 9.84655C52.5725 8.95141 53.0649 8.18414 53.6878 7.54476C54.3192 6.90537 55.0515 6.41091 55.8848 6.06138C56.7266 5.70332 57.6231 5.5243 58.5743 5.5243C59.012 5.5243 59.4455 5.57971 59.8748 5.69054C60.3041 5.80136 60.7208 5.95482 61.1248 6.1509C61.5289 6.34697 61.9119 6.57715 62.2738 6.84143C62.6442 7.10571 62.9894 7.3913 63.3092 7.69821L64.6476 6.07417H65.481V19.7442ZM62.0087 12.7749C62.0087 12.2975 61.9161 11.8372 61.7309 11.3939C61.5541 10.942 61.31 10.5456 60.9986 10.2046C60.6871 9.85507 60.321 9.578 59.9001 9.3734C59.4876 9.16027 59.0457 9.05371 58.5743 9.05371C58.1029 9.05371 57.6568 9.1347 57.2359 9.29667C56.8234 9.45865 56.4615 9.69736 56.15 10.0128C55.847 10.3282 55.6071 10.7204 55.4303 11.1893C55.2535 11.6496 55.1651 12.1782 55.1651 12.7749C55.1651 13.3717 55.2535 13.9045 55.4303 14.3734C55.6071 14.8338 55.847 15.2217 56.15 15.5371C56.4615 15.8525 56.8234 16.0912 57.2359 16.2532C57.6568 16.4152 58.1029 16.4962 58.5743 16.4962C59.0457 16.4962 59.4876 16.3939 59.9001 16.1893C60.321 15.9761 60.6871 15.6991 60.9986 15.3581C61.31 15.0085 61.5541 14.6121 61.7309 14.1688C61.9161 13.717 62.0087 13.2523 62.0087 12.7749Z" fill="white"/>
<path d="M85.3172 19.7442H81.8828V11.0486C81.8828 10.8099 81.8365 10.584 81.7439 10.3708C81.6597 10.1577 81.5377 9.97016 81.3777 9.80818C81.2178 9.64621 81.0326 9.52259 80.8222 9.43734C80.6117 9.34356 80.3887 9.29667 80.153 9.29667C79.9173 9.29667 79.6942 9.34356 79.4838 9.43734C79.2817 9.52259 79.1008 9.64621 78.9408 9.80818C78.7893 9.97016 78.6673 10.1577 78.5747 10.3708C78.4905 10.584 78.4484 10.8099 78.4484 11.0486V19.7442H75.0014V11.0486C75.0014 10.8099 74.9551 10.584 74.8625 10.3708C74.7783 10.1577 74.6562 9.97016 74.4963 9.80818C74.3364 9.64621 74.1512 9.52259 73.9407 9.43734C73.7303 9.34356 73.5072 9.29667 73.2715 9.29667C73.0358 9.29667 72.8128 9.34356 72.6023 9.43734C72.4003 9.52259 72.2193 9.64621 72.0594 9.80818C71.9079 9.97016 71.7858 10.1577 71.6932 10.3708C71.609 10.584 71.567 10.8099 71.567 11.0486V19.7442H68.1199V6.04859H68.9533L69.8876 7.09719C70.3674 6.68798 70.8935 6.37255 71.4659 6.1509C72.0468 5.92072 72.6486 5.80563 73.2715 5.80563C73.9029 5.80563 74.5173 5.92498 75.115 6.16368C75.7211 6.40239 76.2514 6.81586 76.7059 7.40409C76.9164 7.11424 77.1563 6.86701 77.4256 6.6624C77.695 6.4578 77.977 6.29156 78.2716 6.16368C78.5747 6.03581 78.8861 5.94629 79.206 5.89514C79.5259 5.83546 79.8415 5.80563 80.153 5.80563C80.8685 5.80563 81.5377 5.94203 82.1606 6.21483C82.7919 6.48764 83.3391 6.86274 83.802 7.34015C84.2734 7.80904 84.6438 8.36317 84.9132 9.00256C85.1825 9.64194 85.3172 10.324 85.3172 11.0486V19.7442Z" fill="white"/>
<path d="M102.047 1.40665L96.1002 19.7442H92.4764L86.5546 1.40665H90.6708L94.282 13.6445L97.9058 1.40665H102.047Z" fill="white"/>
<path d="M107.489 2.32737C107.489 2.65132 107.426 2.95396 107.3 3.23529C107.182 3.51662 107.018 3.76385 106.808 3.97698C106.597 4.18159 106.349 4.34783 106.063 4.4757C105.785 4.59506 105.486 4.65473 105.166 4.65473C104.846 4.65473 104.543 4.59506 104.257 4.4757C103.979 4.34783 103.735 4.18159 103.525 3.97698C103.323 3.76385 103.158 3.51662 103.032 3.23529C102.914 2.95396 102.855 2.65132 102.855 2.32737C102.855 2.01194 102.914 1.71355 103.032 1.43222C103.158 1.14237 103.323 0.895141 103.525 0.690537C103.735 0.477408 103.979 0.311168 104.257 0.191816C104.543 0.0639386 104.846 0 105.166 0C105.486 0 105.785 0.0639386 106.063 0.191816C106.349 0.311168 106.597 0.477408 106.808 0.690537C107.018 0.895141 107.182 1.14237 107.3 1.43222C107.426 1.71355 107.489 2.01194 107.489 2.32737ZM106.896 19.7442H103.424V6.04859H106.896V19.7442Z" fill="white"/>
<path d="M123.07 12.7749C123.07 13.8491 122.889 14.8295 122.527 15.7161C122.166 16.6027 121.673 17.3657 121.05 18.0051C120.427 18.636 119.695 19.1262 118.853 19.4757C118.02 19.8252 117.123 20 116.164 20C115.213 20 114.316 19.821 113.474 19.4629C112.641 19.1049 111.909 18.6061 111.277 17.9668C110.654 17.3274 110.162 16.5686 109.8 15.6905C109.438 14.8039 109.257 13.8321 109.257 12.7749V0.601023H112.717V6.99488C112.902 6.75618 113.125 6.54305 113.386 6.3555C113.655 6.16795 113.941 6.01449 114.245 5.89514C114.556 5.77579 114.876 5.68627 115.204 5.6266C115.532 5.5584 115.852 5.5243 116.164 5.5243C117.123 5.5243 118.02 5.70759 118.853 6.07417C119.695 6.43222 120.427 6.93521 121.05 7.58312C121.673 8.23103 122.166 8.99829 122.527 9.88491C122.889 10.763 123.07 11.7263 123.07 12.7749ZM119.598 12.7749C119.598 12.2464 119.506 11.7562 119.32 11.3043C119.144 10.844 118.899 10.4476 118.588 10.1151C118.277 9.78261 117.91 9.52259 117.49 9.33504C117.077 9.14748 116.635 9.05371 116.164 9.05371C115.692 9.05371 115.246 9.16027 114.825 9.3734C114.413 9.578 114.051 9.85507 113.739 10.2046C113.428 10.5456 113.184 10.942 113.007 11.3939C112.83 11.8372 112.742 12.2975 112.742 12.7749C112.742 13.3035 112.83 13.7937 113.007 14.2455C113.184 14.6974 113.428 15.0895 113.739 15.422C114.051 15.7545 114.413 16.0188 114.825 16.2148C115.246 16.4024 115.692 16.4962 116.164 16.4962C116.635 16.4962 117.077 16.4024 117.49 16.2148C117.91 16.0188 118.277 15.7545 118.588 15.422C118.899 15.0895 119.144 14.6974 119.32 14.2455C119.506 13.7937 119.598 13.3035 119.598 12.7749Z" fill="white"/>
<path d="M130.369 16.3939C130.503 16.4365 130.638 16.4663 130.773 16.4834C130.907 16.4919 131.042 16.4962 131.177 16.4962C131.513 16.4962 131.837 16.4493 132.149 16.3555C132.46 16.2617 132.751 16.1296 133.02 15.9591C133.298 15.7801 133.542 15.5669 133.752 15.3197C133.971 15.0639 134.148 14.7826 134.283 14.4757L136.808 17.046C136.488 17.5064 136.118 17.9199 135.697 18.2864C135.284 18.653 134.834 18.9642 134.346 19.2199C133.866 19.4757 133.357 19.6675 132.818 19.7954C132.288 19.9318 131.741 20 131.177 20C130.225 20 129.329 19.821 128.487 19.4629C127.654 19.1049 126.922 18.6061 126.29 17.9668C125.667 17.3274 125.175 16.5686 124.813 15.6905C124.451 14.8039 124.27 13.8321 124.27 12.7749C124.27 11.6922 124.451 10.7033 124.813 9.80818C125.175 8.91304 125.667 8.15004 126.29 7.51918C126.922 6.88832 127.654 6.39812 128.487 6.04859C129.329 5.69906 130.225 5.5243 131.177 5.5243C131.741 5.5243 132.292 5.5925 132.831 5.7289C133.369 5.8653 133.879 6.06138 134.359 6.31714C134.847 6.57289 135.301 6.88832 135.722 7.26343C136.143 7.63001 136.513 8.04348 136.833 8.50384L130.369 16.3939ZM132.136 9.19437C131.976 9.1347 131.816 9.09633 131.656 9.07928C131.505 9.06223 131.345 9.05371 131.177 9.05371C130.705 9.05371 130.259 9.14322 129.838 9.32225C129.426 9.49275 129.064 9.73998 128.752 10.0639C128.449 10.3879 128.209 10.7801 128.033 11.2404C127.856 11.6922 127.767 12.2038 127.767 12.7749C127.767 12.9028 127.772 13.0477 127.78 13.2097C127.797 13.3717 127.818 13.5379 127.843 13.7084C127.877 13.8704 127.915 14.0281 127.957 14.1816C127.999 14.335 128.054 14.4714 128.121 14.5908L132.136 9.19437Z" fill="white"/>
</svg>
