<svg width="20" height="20" viewBox="0 0 20 20" fill="none" xmlns="http://www.w3.org/2000/svg">
<g id="Property 1=Behance">
<path id="Vector" d="M8.07034 8.92171C8.07034 8.92171 9.96267 8.78305 9.96267 6.59275C9.96267 4.40229 8.41451 3.33331 6.45343 3.33331H0.000274658V15.5739H6.45343C6.45343 15.5739 10.3928 15.6967 10.3928 11.961C10.3928 11.9611 10.5646 8.92171 8.07034 8.92171ZM5.98893 5.50893H6.45343C6.45343 5.50893 7.3306 5.50893 7.3306 6.78251C7.3306 8.05593 6.81473 8.24056 6.22959 8.24056H2.84362V5.50893H5.98893ZM6.27107 13.3983H2.84362V10.1272H6.45343C6.45343 10.1272 7.76081 10.1103 7.76081 11.8082C7.76081 13.24 6.78432 13.3875 6.27107 13.3983ZM15.6467 6.44767C10.8776 6.44767 10.8819 11.1509 10.8819 11.1509C10.8819 11.1509 10.5547 15.8299 15.6467 15.8299C15.6467 15.8299 19.8901 16.0692 19.8901 12.575H17.7078C17.7078 12.575 17.7806 13.8908 15.7195 13.8908C15.7195 13.8908 13.5369 14.0352 13.5369 11.7613H19.9629C19.9629 11.7612 20.666 6.44767 15.6467 6.44767ZM13.5129 10.1272C13.5129 10.1272 13.7794 8.24052 15.6952 8.24052C17.6107 8.24052 17.5867 10.1272 17.5867 10.1272H13.5129ZM18.095 5.56177H12.9786V4.05444H18.095V5.56177Z" fill="#000000"/>
</g>
</svg>
