<svg width="1435" height="1161" viewBox="0 0 1435 1161" fill="none" xmlns="http://www.w3.org/2000/svg">
<path opacity="0.5" d="M306.586 86.6942C191.077 187.217 173.177 377.298 94.9479 517.527C67.7155 566.322 32.5275 609.992 14.1685 664.123C-27.9806 788.026 30.0286 928.572 107.672 1026.98C144.696 1073.93 187.941 1116.94 240.264 1136.72C280.501 1151.94 323.644 1152.57 365.998 1152.97L1108.01 1160.9C1190.85 1161.77 1282.9 1158.62 1342.46 1092.21C1383.52 1046.48 1400.19 979.692 1414.34 915.944C1431.73 837.613 1447.49 752.546 1420.44 677.94C1389.53 592.582 1311.38 544.21 1262.83 470.555C1184.04 351.223 1185.85 170.731 1085.52 75.4664C1038.67 31.0041 976.866 13.5679 916.639 4.84978C803.094 -11.6089 695.541 19.4592 584.036 15.1266C488.722 11.428 385.657 17.8741 306.586 86.6942Z" fill="#E7ECFF"/>
</svg>
